<svg xmlns:dc="http://purl.org/dc/elements/1.1/" xmlns:cc="http://creativecommons.org/ns#" xmlns:rdf="http://www.w3.org/1999/02/22-rdf-syntax-ns#" xmlns:svg="http://www.w3.org/2000/svg" xmlns="http://www.w3.org/2000/svg" xmlns:sodipodi="http://sodipodi.sourceforge.net/DTD/sodipodi-0.dtd" xmlns:inkscape="http://www.inkscape.org/namespaces/inkscape" viewBox="0 0 8.4666665 10.583333625" version="1.1" x="0px" y="0px"><g transform="translate(0,-288.53333)"><path style="color:#000000;font-style:normal;font-variant:normal;font-weight:normal;font-stretch:normal;font-size:medium;line-height:normal;font-family:sans-serif;font-variant-ligatures:normal;font-variant-position:normal;font-variant-caps:normal;font-variant-numeric:normal;font-variant-alternates:normal;font-feature-settings:normal;text-indent:0;text-align:start;text-decoration:none;text-decoration-line:none;text-decoration-style:solid;text-decoration-color:#000000;letter-spacing:normal;word-spacing:normal;text-transform:none;writing-mode:lr-tb;direction:ltr;text-orientation:mixed;dominant-baseline:auto;baseline-shift:baseline;text-anchor:start;white-space:normal;shape-padding:0;clip-rule:nonzero;display:inline;overflow:visible;visibility:visible;opacity:1;isolation:auto;mix-blend-mode:normal;color-interpolation:sRGB;color-interpolation-filters:linearRGB;solid-color:#000000;solid-opacity:1;vector-effect:none;fill:#000000;fill-opacity:1;fill-rule:evenodd;stroke:none;stroke-width:2;stroke-linecap:round;stroke-linejoin:round;stroke-miterlimit:4;stroke-dasharray:none;stroke-dashoffset:0;stroke-opacity:1;paint-order:stroke fill markers;color-rendering:auto;image-rendering:auto;shape-rendering:auto;text-rendering:auto;enable-background:accumulate" d="M 14.335938,1.4980469 2.3398438,9.5 c -0.8369307,0.556082 -1.3371122,1.497166 -1.3359376,2.501953 l -0.007812,2.001953 c 0,1.29429 0.84747025,2.396889 2.00781245,2.8125 v 1.179688 c -0.1121236,1.437183 2.1062643,1.437183 1.9941407,0 v -2 C 4.9958513,15.446879 4.5511685,15.002196 4.0019531,15 3.4391376,15.000076 2.9980935,14.566716 2.9960938,14.003906 V 12.001953 C 2.9957003,11.665575 3.1670003,11.354186 3.4472656,11.167969 L 15.443359,3.1660156 c 0.160978,-0.1065827 0.345482,-0.1677064 0.541993,-0.1699218 0.209148,-0.00236 0.404329,0.05956 0.571289,0.1699218 l 11.996093,8.0019534 c 0.280335,0.18633 0.451566,0.497455 0.451172,0.833984 v 2.001953 C 29.001918,14.566716 28.562814,15.000076 28,15 c -0.549215,0.0022 -0.993898,0.446879 -0.996094,0.996094 V 28 c 0,0.56451 -0.441318,1.003906 -1.005859,1.003906 H 21 V 22 c 0,-1.644699 -1.3553,-3 -3,-3 h -4 c -1.6447,0 -3,1.355301 -3,3 v 7.003906 H 6.0019531 C 5.4374123,29.003906 4.9980469,28.56451 4.9980469,28 v -2.001953 c 0.1121236,-1.437183 -2.1062643,-1.437183 -1.9941407,0 V 28 c 0,1.645266 1.3527921,2.996056 2.9980469,2.996094 H 25.998047 c 1.645255,0 2.998047,-1.350828 2.998047,-2.996094 V 16.816406 c 1.156614,-0.414972 1.997431,-1.514896 2,-2.80664 V 12.001953 C 30.997268,10.997166 30.497022,10.056082 29.660156,9.5 L 17.664062,1.4980469 C 17.159623,1.1639366 16.565723,0.99678027 15.962891,1.0039062 c -0.580195,0.00686 -1.14583,0.1756777 -1.626953,0.4941407 z M 4,21 c -0.5522946,0 -1.0000139,0.447735 -1,1 6.9e-6,0.552302 0.4477202,1 1,1 0.5522797,0 0.9999932,-0.447698 1,-1 1.4e-5,-0.552265 -0.4477056,-1 -1,-1 z m 10,0 h 4 c 0.571362,0 1,0.428649 1,1 v 7 h -6 v -7 c 0,-0.571351 0.428638,-1 1,-1 z" transform="matrix(0.26458333,0,0,0.26458333,0,288.53333)"/></g><text x="0" y="23.4666669" fill="#000000" font-size="5px" font-weight="bold" font-family="'Helvetica Neue', Helvetica, Arial-Unicode, Arial, Sans-serif">Created by Gajah Mada Studio</text><text x="0" y="28.4666669" fill="#000000" font-size="5px" font-weight="bold" font-family="'Helvetica Neue', Helvetica, Arial-Unicode, Arial, Sans-serif">from the Noun Project</text></svg>